{"title":"Little Big Soldier.2010.1080p.BluRay.DTS.x264-LTT","uid":5495329,"size":5164064825,"categoryP":"video","categoryS":"hd___movies","magnet":"?xt=urn:btih:b3b90b152b54f5233ff83ade6916860c58a9f12f&amp;dn=Little+Big+Soldier.2010.1080p.BluRay.DTS.x264-LTT&amp;tr=udp%3A%2F%2Ftracker.openbittorrent.com%3A80&amp;tr=udp%3A%2F%2Fopen.demonii.com%3A1337&amp;tr=udp%3A%2F%2Ftracker.coppersurfer.tk%3A6969&amp;tr=udp%3A%2F%2Fexodus.desync.com%3A6969","seeders":0,"leechers":3,"uploader":"Ltt_01","files":2,"time":1271240399,"description":"Little Big Soldier 1080p.mkv\n****************************\n\nTiTLE......  Da bing xiao jiang\n             Little Big Soldier (English title)\nYEAR.......  2010\nGENRE......  Action | Adventure | Comedy \niMDB RATE..  User Rating: 7.1/10 (830 votes)\niMDB URL... &lt;a href=&quot; http://www.imdb.com/title/tt1319718/&quot; rel=&quot;nofollow&quot; target=&quot;_NEW&quot;&gt; http://www.imdb.com/title/tt1319718/&lt;/a&gt;\n**************************************************\n\nVideo\nDuration                         : 1h 35mn\nBit rate                         : 5 702 Kbps\nWidth                            : 1 920 pixels\nHeight                           : 816 pixels\nDisplay aspect ratio             : 2.35:1\nFrame rate                       : 25.000 fps\nResolution                       : 24 bits\nStream size                      : 3.71 GiB (77%)\n\n\nAudio\nFormat                           : DTS\nFormat/Info                      : Digital Theater Systems\nDuration                         : 1h 35mn\nBit rate                         : 1 510 Kbps\nChannel(s)                       : 6 channels\nChannel positions                : Front: L C R, Surround: L R, LFE\nSampling rate                    : 48.0 KHz\nResolution                       : 24 bits\nStream size                      : 1.01 GiB (21%)\nLanguage                         : Chinese (Mandarin)\n\nSubtitles: English, Finnish, Portuguese\n***************************************\n","torrent":{"xt":"urn:btih:b3b90b152b54f5233ff83ade6916860c58a9f12f","amp;dn":"Little+Big+Soldier.2010.1080p.BluRay.DTS.x264-LTT","amp;tr":["udp%3A%2F%2Ftracker.openbittorrent.com%3A80","udp%3A%2F%2Fopen.demonii.com%3A1337","udp%3A%2F%2Ftracker.coppersurfer.tk%3A6969","udp%3A%2F%2Fexodus.desync.com%3A6969"],"infoHash":"b3b90b152b54f5233ff83ade6916860c58a9f12f","infoHashBuffer":{"type":"Buffer","data":[179,185,11,21,43,84,245,35,63,248,58,222,105,22,134,12,88,169,241,47]},"announce":[],"urlList":[]}}